Coordinates
version=1
nRows=16
nColumns=36
inDegrees=yes

Units are S.I. units (second, meters, Newtons, ...)
If the header above contains a line with 'inDegrees', this indicates whether rotational values are in degrees (yes) or radians (no).

endheader
time	pelvis_tilt	pelvis_list	pelvis_rotation	pelvis_tx	pelvis_ty	pelvis_tz	hip_flexion_r	hip_adduction_r	hip_rotation_r	knee_angle_r	knee_angle_r_beta	ankle_angle_r	subtalar_angle_r	mtp_angle_r	hip_flexion_l	hip_adduction_l	hip_rotation_l	knee_angle_l	knee_angle_l_beta	ankle_angle_l	subtalar_angle_l	mtp_angle_l	lumbar_extension	lumbar_bending	lumbar_rotation	arm_flex_r	arm_add_r	arm_rot_r	elbow_flex_r	pro_sup_r	arm_flex_l	arm_add_l	arm_rot_l	elbow_flex_l	pro_sup_l
      0.00000000	      2.68004436	     -1.45576304	      1.50632020	      0.41775874	      0.90190640	     -0.10028152	     -3.23292021	     -0.65110006	      2.29623468	      4.43457585	      0.07739795	      5.08850263	    -15.08801385	     -5.21550494	     -2.84419733	     -5.45434418	      1.63408529	      4.01064391	      0.06999894	      7.64331927	     -5.57897904	     -5.21550494	     -6.81633831	      0.19982015	     -1.66810242	      7.29489393	     -8.80971354	     33.81975923	     24.07477689	     66.45067497	      1.80668637	    -11.07934709	     25.82440827	     27.47180852	     61.94136283
      0.01666670	      1.89345126	     -1.33424883	      2.11233778	      0.42007369	      0.89963607	     -0.10260621	     -3.23748485	     -0.34141653	      2.96507514	      3.26941193	      0.05706200	      7.51662889	    -13.32331560	     -5.66058554	     -2.36272842	     -4.85523944	      2.83141396	      3.40037625	      0.05934776	      7.53786983	     -5.83162672	     -5.66058554	     -4.52495493	      0.19494717	     -1.59434753	      6.74129075	     -9.23331080	     35.47419789	     24.32281046	     67.87270450	      2.10428649	    -11.29246702	     29.44020100	     26.73756501	     62.95152210
      0.03333330	      1.15758897	     -1.07376998	      1.76792691	      0.42103133	      0.89961647	     -0.10362251	     -2.70899063	     -0.65153461	      2.54153093	      2.69186888	      0.04698197	      7.71614935	    -13.65573466	     -5.87018442	     -1.75068135	     -4.42333772	      2.52655344	      3.24610500	      0.05665522	      7.45820727	     -5.41146899	     -5.87018442	     -3.62218020	     -0.28237536	     -1.17674177	      6.34505002	     -9.19689771	     35.12785642	     24.86955505	     67.60616718	      2.18361082	    -11.47324749	     29.40201677	     26.94664306	     62.85210133
      0.05000000	      1.68727487	     -1.03933517	      1.88662409	      0.41914229	      0.89964655	     -0.10240145	     -3.27882851	     -0.67021138	      2.60971564	      2.55952085	      0.04467207	      8.02385421	    -13.96461358	     -6.05419226	     -2.64110444	     -4.38632284	      2.73760041	      2.49862079	      0.04360916	      7.40442724	     -5.79588981	     -6.05419226	     -4.35200015	     -0.39312442	     -0.68469632	      6.19589812	     -9.29104116	     34.68773232	     25.39154503	     69.71775123	      3.18282286	    -11.68670251	     31.87499470	     26.20290861	     64.23085664
      0.06666670	      1.84622737	     -1.00840783	      1.91442541	      0.41917426	      0.89958744	     -0.10163358	     -3.42480868	     -0.62498434	      2.55450938	      2.58674572	      0.04514723	      8.20170793	    -14.30036666	     -6.32026698	     -2.96731378	     -4.43732650	      2.98583483	      2.23502192	      0.03900849	      7.62366217	     -5.58351253	     -6.32026698	     -4.63666015	     -0.39731806	     -0.58875818	      6.09743980	     -9.16535038	     33.85667954	     25.70683278	     69.06926759	      3.20021193	    -11.60142006	     31.49167597	     26.22252594	     63.85329499
      0.08333330	      2.11954751	     -1.01938574	      1.93850707	      0.41958363	      0.89821412	     -0.10123304	     -3.69137045	     -0.53960808	      2.75202079	      2.63331551	      0.04596003	      8.48534625	    -14.55397737	     -6.91299352	     -3.29820776	     -4.50388248	      3.28222687	      2.16993290	      0.03787247	      7.88224049	     -5.89515821	     -6.91299352	     -4.99889298	     -0.39238390	     -0.20878301	      5.70381722	     -8.89046685	     30.43128611	     26.05162748	     77.18831632	      3.48607328	    -11.52300330	     31.33043580	     25.89411287	     66.78250013
      0.10000000	      2.26677329	     -1.00397244	      2.00021947	      0.41966021	      0.90033389	     -0.10201332	     -3.86108683	     -0.56336105	      2.81084213	      2.62512136	      0.04581701	      8.43027783	    -14.79478674	     -7.17508166	     -3.47993498	     -4.51475799	      3.47933827	      2.11557790	      0.03692380	      7.85179380	     -6.19644285	     -7.17508166	     -5.09136133	     -0.34437955	     -0.18243283	      5.75719834	     -8.90704147	     30.92592225	     26.09948930	     75.17165470	      3.43647062	    -11.36256612	     30.92382243	     25.78347609	     66.01280877
      0.11666670	      2.27439958	     -0.97584793	      2.01305596	      0.41937642	      0.90470440	     -0.10005826	     -3.85826318	     -0.53955541	      2.81115966	      2.62072019	      0.04574020	      8.42658018	    -14.79170282	     -7.17510567	     -3.46022505	     -4.52754690	      3.47932995	      2.11009489	      0.03682810	      7.84976567	     -6.19607235	     -7.17510567	     -5.08965017	     -0.34347140	     -0.17874190	      5.75747582	     -8.90328672	     30.92582555	     26.10114104	     75.17220039	      3.43200547	    -11.35815808	     30.92352524	     25.78275240	     66.01292899
      0.13333330	      2.53747997	     -0.91219347	      1.98963755	      0.41776876	      0.90594165	     -0.09980875	     -4.31333239	     -0.59617057	      2.58682244	      2.18361433	      0.03811126	      8.34009633	    -13.88799290	     -7.21525490	     -3.68888636	     -4.55968667	      3.23032919	      1.98243244	      0.03459997	      7.48031947	     -5.71685353	     -7.21525490	     -5.52294718	     -0.55436947	     -0.12059560	      5.74703206	     -8.55884585	     30.38752938	     26.09636087	     73.96173876	      3.53941408	    -11.20788294	     29.80115895	     25.52825590	     65.44386035
      0.15000000	      2.61396289	     -0.84314467	      1.82902762	      0.41755245	      0.90379542	     -0.09878704	     -4.42079652	     -0.64428667	      2.87696211	      2.03028418	      0.03543514	      8.10075882	    -14.12672044	     -7.37927255	     -3.70480131	     -4.53688873	      3.43583649	      1.96870436	      0.03436037	      6.98893014	     -6.19581688	     -7.37927255	     -5.76664670	     -0.69736365	     -0.19241744	      5.90988860	     -8.47045026	     29.97080642	     26.17002931	     77.53114882	      3.31306129	    -11.22068160	     27.88789936	     25.79978728	     68.09845091
      0.16666670	      2.74117820	     -0.86655208	      1.87422353	      0.41842871	      0.90053236	     -0.10020953	     -4.61373607	     -0.60620220	      2.87688473	      1.89560396	      0.03308453	      7.89021428	    -14.30098967	     -7.41027558	     -3.83357329	     -4.56908358	      3.51226201	      1.99832337	      0.03487732	      6.85247321	     -6.33541055	     -7.41027558	     -5.93046757	     -0.71838321	     -0.16891661	      5.88877308	     -8.51588771	     30.11023104	     26.32590368	     75.91005665	      3.37655063	    -11.25855017	     27.94089737	     25.83697891	     67.39270852
      0.18333330	      2.98537904	     -0.89007679	      1.91121222	      0.41835886	      0.89812070	     -0.10111014	     -4.87570251	     -0.59452811	      2.92838365	      1.92068451	      0.03352227	      7.76766794	    -14.60358753	     -7.47725246	     -4.11437368	     -4.58390790	      3.59436546	      2.02177540	      0.03528664	      7.01033800	     -6.31841433	     -7.47725246	     -6.24303250	     -0.70823692	     -0.15565637	      5.88592221	     -8.56965102	     29.75773436	     26.44103827	     78.01195474	      3.50246902	    -11.33691179	     28.09965391	     25.95654073	     68.81246971
      0.20000000	      2.97111957	     -0.90417720	      1.89936332	      0.41676254	      0.90343170	     -0.09916440	     -4.82838436	     -0.56740632	      2.89675521	      1.86609914	      0.03256957	      7.74299544	    -14.58040898	     -7.47730259	     -4.02950530	     -4.62284647	      3.56700268	      1.99703122	      0.03485477	      6.96568567	     -6.31834106	     -7.47730259	     -6.28738674	     -0.75035773	     -0.13540662	      5.90080196	     -8.58549985	     29.75471141	     26.45141346	     78.00710467	      3.48467355	    -11.31298745	     28.09620259	     25.97177744	     68.81002255
      0.21666670	      3.07891376	     -0.92289881	      1.99139521	      0.41714237	      0.90395348	     -0.09799282	     -5.02179205	     -0.51858458	      2.45105752	      1.64885895	      0.02877802	      7.58342887	    -13.98558399	     -7.48183592	     -4.12895971	     -4.68638735	      3.68774609	      1.91109853	      0.03335496	      6.67904837	     -6.37413220	     -7.48183592	     -6.36788212	     -0.79072994	     -0.15664029	      5.79852960	     -8.49516132	     29.53083584	     26.44957451	     75.65640904	      3.40809120	    -11.23694222	     27.49733502	     26.11802772	     67.50384878
      0.23333330	      3.08303790	     -0.95047839	      1.99215513	      0.41862056	      0.90009490	     -0.09985004	     -5.03542665	     -0.50325439	      2.45409662	      1.72782267	      0.03015619	      7.59774462	    -14.01572765	     -7.48186751	     -4.13906761	     -4.71377412	      3.63150721	      1.95988365	      0.03420642	      6.69371254	     -6.40507905	     -7.48186751	     -6.41575645	     -0.82845413	     -0.16017931	      5.77988660	     -8.53964119	     29.54914233	     26.45888313	     75.66459034	      3.39440846	    -11.24273266	     27.50705951	     26.13556229	     67.50803814
      0.25000000	      3.46725521	     -0.94046614	      1.88219369	      0.41676136	      0.90252953	     -0.09870515	     -5.46981352	     -0.49600646	      2.69052150	      1.60713664	      0.02804983	      7.32727080	    -14.42627302	     -7.49198941	     -4.62062532	     -4.72878166	      3.59993922	      1.77717535	      0.03101756	      6.42568171	     -6.63314915	     -7.49198941	     -6.92944622	     -0.82150094	     -0.10742882	      5.99950157	     -8.74866453	     30.27900942	     26.67115083	     77.59271825	      3.40343325	    -11.34320822	     27.53044732	     26.44699039	     68.50747507
